<svg xmlns="http://www.w3.org/2000/svg" viewBox="0 0 256 256" fill="none" stroke="currentColor" stroke-width="1">
<path d="M158.38 96A80 80 0 1 1 131.42 18.72L110.85 43.23A48 48 0 1 0 125.25 96zM72 64h152v32h-152zM40 80L72 48L72 112zM256 80L224 48L224 112zM176 64h32v192h-32z" fill="currentColor" stroke="none" opacity=".3"/>
<path d="M0 0V256M0 0H256M16 0V256M0 16H256M32 0V256M0 32H256M48 0V256M0 48H256M64 0V256M0 64H256M80 0V256M0 80H256M96 0V256M0 96H256M112 0V256M0 112H256M128 0V256M0 128H256M144 0V256M0 144H256M160 0V256M0 160H256M176 0V256M0 176H256M192 0V256M0 192H256M208 0V256M0 208H256M224 0V256M0 224H256M240 0V256M0 240H256M256 0V256M0 256H256" opacity=".2" vector-effect="non-scaling-stroke"/>
<g opacity=".75">
<circle cx="80" cy="80" r="80" vector-effect="non-scaling-stroke"/><circle cx="80" cy="80" r="48" vector-effect="non-scaling-stroke"/><path d="M68 80L92 80" vector-effect="non-scaling-stroke"/><path d="M80 68L80 92" vector-effect="non-scaling-stroke"/><path d="M80 80L131.42 18.72" vector-effect="non-scaling-stroke"/><path d="M0 64L256 64" vector-effect="non-scaling-stroke"/><path d="M0 96L256 96" vector-effect="non-scaling-stroke"/><path d="M0 80L256 80" vector-effect="non-scaling-stroke"/><path d="M0 48L256 48" vector-effect="non-scaling-stroke"/><path d="M0 112L256 112" vector-effect="non-scaling-stroke"/><path d="M40 0L40 256" vector-effect="non-scaling-stroke"/><path d="M72 0L72 256" vector-effect="non-scaling-stroke"/><path d="M176 0L176 256" vector-effect="non-scaling-stroke"/><path d="M192 0L192 256" vector-effect="non-scaling-stroke"/><path d="M208 0L208 256" vector-effect="non-scaling-stroke"/><path d="M224 0L224 256" vector-effect="non-scaling-stroke"/><path d="M40 80L72 48" vector-effect="non-scaling-stroke"/><path d="M40 80L72 112" vector-effect="non-scaling-stroke"/><path d="M256 80L224 48" vector-effect="non-scaling-stroke"/><path d="M256 80L224 112" vector-effect="non-scaling-stroke"/>
</g>
</svg>
